<svg xmlns="http://www.w3.org/2000/svg" width="48" height="48" viewBox="0 0 48 48">
  <g id="vuesax_bulk_password-check" data-name="vuesax/bulk/password-check" transform="translate(-556 -188)">
    <g id="password-check" transform="translate(556 188)">
      <path id="Vector" d="M1.5,40A1.511,1.511,0,0,1,0,38.5V1.5A1.511,1.511,0,0,1,1.5,0,1.511,1.511,0,0,1,3,1.5v37A1.511,1.511,0,0,1,1.5,40Z" transform="translate(28.5 4)" fill="#fff"/>
      <path id="Vector-2" data-name="Vector" d="M8,32H20V0H8A8,8,0,0,0,0,8V24A8,8,0,0,0,8,32Z" transform="translate(5 8)" fill="#fff" opacity="0.4"/>
      <path id="Vector-3" data-name="Vector" d="M6,32H0V0H6a8,8,0,0,1,8,8V24A8,8,0,0,1,6,32Z" transform="translate(30 8)" fill="#fff" opacity="0.4"/>
      <path id="Vector-4" data-name="Vector" d="M2,4a1.991,1.991,0,0,1-.76-.16,2.309,2.309,0,0,1-.66-.42,2.922,2.922,0,0,1-.44-.66A1.971,1.971,0,0,1,0,2,2.1,2.1,0,0,1,.58.582l.3-.24a1.514,1.514,0,0,1,.36-.18A1.271,1.271,0,0,1,1.6.042a2,2,0,0,1,1.82.54A2.1,2.1,0,0,1,4,2a1.991,1.991,0,0,1-.16.76,2.309,2.309,0,0,1-.42.66,2.309,2.309,0,0,1-.66.42A1.991,1.991,0,0,1,2,4Z" transform="translate(9.5 21.998)" fill="#fff"/>
      <path id="Vector-5" data-name="Vector" d="M2,3.975a1.991,1.991,0,0,1-.76-.16A2.309,2.309,0,0,1,.58,3.4a1.98,1.98,0,0,1-.42-2.18A2.065,2.065,0,0,1,.58.555a2.094,2.094,0,0,1,2.84,0A2.1,2.1,0,0,1,4,1.975a1.991,1.991,0,0,1-.16.76,2.309,2.309,0,0,1-.42.66,2.309,2.309,0,0,1-.66.42A1.991,1.991,0,0,1,2,3.975Z" transform="translate(16.5 22.025)" fill="#fff"/>
      <path id="Vector-6" data-name="Vector" d="M0,0H48V48H0Z" fill="none" opacity="0"/>
    </g>
  </g>
</svg>
