<svg xmlns="http://www.w3.org/2000/svg" width="48" height="48" viewBox="0 0 48 48">
  <g id="vuesax_bulk_info-circle" data-name="vuesax/bulk/info-circle" transform="translate(-364 -252)">
    <g id="info-circle" transform="translate(364 252)">
      <path id="Vector" d="M40,20A20,20,0,1,1,20,0,20,20,0,0,1,40,20Z" transform="translate(4 4)" fill="#fff" opacity="0.4"/>
      <path id="Vector-2" data-name="Vector" d="M1.5,13A1.511,1.511,0,0,0,3,11.5V1.5A1.511,1.511,0,0,0,1.5,0,1.511,1.511,0,0,0,0,1.5v10A1.511,1.511,0,0,0,1.5,13Z" transform="translate(22.5 14.5)" fill="#fff"/>
      <path id="Vector-3" data-name="Vector" d="M3.84,1.23A2.309,2.309,0,0,0,3.42.57,2.309,2.309,0,0,0,2.76.15a2,2,0,0,0-1.52,0A2.309,2.309,0,0,0,.58.57a2.309,2.309,0,0,0-.42.66A1.991,1.991,0,0,0,0,1.99a1.991,1.991,0,0,0,.16.76,2.065,2.065,0,0,0,.42.66,2.309,2.309,0,0,0,.66.42A1.991,1.991,0,0,0,2,3.99a1.991,1.991,0,0,0,.76-.16,2.309,2.309,0,0,0,.66-.42,2.065,2.065,0,0,0,.42-.66A1.991,1.991,0,0,0,4,1.99,1.991,1.991,0,0,0,3.84,1.23Z" transform="translate(22 30.01)" fill="#fff"/>
      <path id="Vector-4" data-name="Vector" d="M0,0H48V48H0Z" fill="none" opacity="0"/>
    </g>
  </g>
</svg>
